<svg xmlns="http://www.w3.org/2000/svg" viewBox="0 0 100 100"><circle cx="50" cy="50" r="50" fill="#f7f7f7"/><circle cx="50" cy="50" r="39.89" fill="#00a8ca"/><path d="M61,48.34c-3.71-2-8.26-2.73-11.64-4.13-2.32-1-4.77-2.16-4.3-5.62.4-2.9,4.23-4.33,7.3-4.29,3.35.05,6.39,1.43,7.77,3.24l7.39-8.09a18.5,18.5,0,0,0-8.05-4.25A27,27,0,0,0,46.87,25c-4.19,1-9.68,3.41-12.19,10-1.11,2.9-1.38,8.25.5,11.37,2.35,3.88,6.08,5.74,10.5,7.12,3.54,1.11,8.47,2.42,10.29,4.69a4.38,4.38,0,0,1,.1,5.14c-1.54,2.06-5,3.07-8.51,2.56a11.65,11.65,0,0,1-7.64-4.53L32.23,69.7A22,22,0,0,0,43,75.33a27.28,27.28,0,0,0,14.81-1A15.16,15.16,0,0,0,66,67.18a17.35,17.35,0,0,0,1.52-9.85C67.15,54.1,65.34,50.66,61,48.34Z" fill="#f7f7f7"/></svg>